<?xml version="1.0" encoding="utf-8"?>
<!-- Generator: Adobe Illustrator 19.2.1, SVG Export Plug-In . SVG Version: 6.00 Build 0)  -->
<svg version="1.1" id="layer" xmlns="http://www.w3.org/2000/svg" xmlns:xlink="http://www.w3.org/1999/xlink" x="0px" y="0px"
	 viewBox="0 0 652 652" style="enable-background:new 0 0 652 652;" xml:space="preserve">
<style type="text/css">
	.st0{fill:#6188AF;}
</style>
<g>
	<g>
		<path class="st0" d="M413.6,264.9h57.6l-57.6,66.6v18.3h85.2v-18.3h-56l56-66.6v-18.4h-85.2V264.9z M72.2,247
			c-27.8,0-50.5,21.4-52.2,48.3l0.2,102.8h18.4v-60.3c9.1,7.5,20.8,12,33.6,12c28.9,0,52.3-23,52.3-51.4
			C124.5,270,101.1,247,72.2,247 M71.8,331.1c-17.9,0-32.4-14.3-32.4-31.8c0-17.6,14.5-31.8,32.4-31.8c17.9,0,32.4,14.3,32.4,31.8
			C104.2,316.8,89.7,331.1,71.8,331.1 M143.2,349.8H162V247h-18.7V349.8z M619.9,296.5v-0.9h0c-1.5-27.9-25-50.1-53.7-50.1
			c-29.8,0-53.9,23.7-53.9,52.9c0,29.2,24.1,52.9,53.9,52.9c13.4,0,25.7-4.9,35.1-12.9v11.3h18.6v-49.5c0-0.6,0.1-1.3,0.1-1.9
			C620,297.8,619.9,297.2,619.9,296.5 M566.1,332.2c-19,0-34.4-15.1-34.4-33.8c0-18.6,15.4-33.7,34.4-33.7c19,0,34.4,15.1,34.4,33.7
			C600.5,317.1,585.1,332.2,566.1,332.2 M308.8,264.9h57.6l-57.6,66.6v18.3h85.3v-18.3h-56l56-66.6v-18.4h-85.3V264.9z M289.9,295.6
			L289.9,295.6c-1.6-27.9-25-50.1-53.8-50.1c-29.8,0-53.9,23.7-53.9,52.9c0,29.2,24.1,52.9,53.9,52.9c13.4,0,25.7-4.9,35.1-12.9
			v11.3h18.6v-49.5c0-0.6,0.1-1.3,0.1-1.9c0-0.6-0.1-1.3-0.1-1.9V295.6z M236.2,332.2c-19,0-34.4-15.1-34.4-33.8
			c0-18.6,15.4-33.7,34.4-33.7c19,0,34.4,15.1,34.4,33.7C270.5,317.1,255.1,332.2,236.2,332.2"/>
	</g>
</g>
</svg>
